<svg height="58" width="101" xmlns="http://www.w3.org/2000/svg"><g fill="#fff"><path d="M67.194 11.786a.708.708 0 00-.674-.493h-9.349a.711.711 0 00-.61 1.067l7.77 13.395c.126.216.355.35.605.352h.005c.247 0 .477-.13.605-.342A17.057 17.057 0 0068 16.97c0-1.762-.272-3.506-.806-5.185z" opacity=".799"/><path d="M49.151 9.483a.71.71 0 00.612.353H65.23a.706.706 0 00.62-1.041A16.923 16.923 0 0054.604.38a.706.706 0 00-.763.334l-4.689 8.064a.703.703 0 00-.001.705z" opacity=".703"/><path d="M59.054 19.417a.708.708 0 00-.612-.353h-.002a.71.71 0 00-.612.354l-7.826 13.495a.71.71 0 00.593 1.065l.16.009c.097.007.195.013.295.013 4.801 0 9.409-2.06 12.64-5.649a.71.71 0 00.085-.83z" opacity=".901"/><path d="M45.44 22.353a.712.712 0 00.002-.71l-7.71-13.511a.707.707 0 00-.6-.356c-.258-.032-.483.123-.613.337a17.075 17.075 0 00-1.714 14.1.707.707 0 00.672.494h9.353a.704.704 0 00.61-.354zm7.409 2.164a.71.71 0 00-.612-.353H36.77a.706.706 0 00-.62 1.041 16.923 16.923 0 0011.245 8.414.707.707 0 00.763-.334l4.688-8.064a.703.703 0 00.002-.704zM43.004 14.46c.126.218.36.354.612.354h.001a.707.707 0 00.612-.352l7.769-13.38a.707.707 0 00-.591-1.06l-.16-.009A4.13 4.13 0 0050.954 0c-4.738 0-9.3 2.015-12.518 5.528a.706.706 0 00-.091.829zM8.338 50.964a2.99 2.99 0 011.796 1.108c.452.58.678 1.243.678 1.988 0 1.076-.376 1.928-1.127 2.557s-1.799.944-3.143.944H.55V44.696h5.79c1.308 0 2.331.3 3.07.898.74.599 1.109 1.411 1.109 2.438 0 .757-.199 1.386-.596 1.887-.397.5-.925.849-1.585 1.045zM3.684 49.9h2.052c.513 0 .907-.113 1.182-.34.275-.225.412-.558.412-.998s-.137-.776-.412-1.008c-.275-.232-.669-.348-1.182-.348H3.684zm2.309 5.13c.525 0 .931-.118 1.218-.357.287-.238.43-.583.43-1.035 0-.452-.149-.806-.448-1.063-.3-.256-.712-.385-1.237-.385H3.684v2.84zm15.629-2.747a8 8 0 01-.055.916h-7.092c.05.635.254 1.121.614 1.457s.803.504 1.329.504c.782 0 1.325-.33 1.63-.99h3.336a4.577 4.577 0 01-.926 1.815 4.633 4.633 0 01-1.676 1.264c-.672.305-1.424.458-2.254.458-1.002 0-1.894-.214-2.676-.641a4.562 4.562 0 01-1.832-1.833c-.44-.794-.66-1.722-.66-2.785s.217-1.991.65-2.786a4.503 4.503 0 011.824-1.832c.782-.428 1.68-.641 2.694-.641.99 0 1.869.207 2.638.623s1.372 1.007 1.805 1.777c.434.77.651 1.668.651 2.694zm-3.207-.825c0-.537-.183-.965-.55-1.282s-.824-.477-1.374-.477c-.525 0-.968.153-1.329.458-.36.306-.583.74-.668 1.301zm9.912 3.445v2.658h-1.594c-1.136 0-2.022-.278-2.657-.834s-.953-1.463-.953-2.722v-4.068h-1.246v-2.602h1.246v-2.492h3.133v2.492h2.053v2.602h-2.053v4.105c0 .306.074.525.22.66s.391.201.733.201zm6.797 0v2.658H33.53c-1.137 0-2.022-.278-2.657-.834s-.953-1.463-.953-2.722v-4.068h-1.246v-2.602h1.246v-2.492h3.133v2.492h2.053v2.602h-2.053v4.105c0 .306.073.525.22.66.147.134.391.201.733.201zm10.736-2.62a8 8 0 01-.054.916h-7.092c.049.635.253 1.121.614 1.457s.803.504 1.328.504c.782 0 1.326-.33 1.631-.99h3.335a4.577 4.577 0 01-.925 1.815 4.633 4.633 0 01-1.677 1.264c-.672.305-1.423.458-2.254.458-1.002 0-1.893-.214-2.675-.641a4.562 4.562 0 01-1.833-1.833c-.44-.794-.66-1.722-.66-2.785s.217-1.991.651-2.786a4.503 4.503 0 011.823-1.832c.782-.428 1.68-.641 2.694-.641.99 0 1.87.207 2.639.623s1.371 1.007 1.805 1.777c.434.77.65 1.668.65 2.694zm-3.206-.825c0-.537-.184-.965-.55-1.282s-.825-.477-1.374-.477c-.526 0-.969.153-1.329.458-.36.306-.583.74-.669 1.301zM50 49.04a4.134 4.134 0 011.375-1.33 3.544 3.544 0 011.832-.485v3.317h-.861c-.782 0-1.368.168-1.76.504-.39.336-.586.925-.586 1.768v4.747h-3.133V47.335H50zm8.226 8.667c-.891 0-1.686-.153-2.382-.458s-1.246-.724-1.65-1.255a3.302 3.302 0 01-.677-1.787h3.097c.036.354.201.641.495.861.293.22.653.33 1.08.33.392 0 .694-.076.908-.229s.32-.351.32-.595c0-.294-.152-.51-.458-.651s-.8-.296-1.484-.467a13.936 13.936 0 01-1.832-.54 3.166 3.166 0 01-1.265-.899c-.354-.41-.531-.962-.531-1.658 0-.587.162-1.121.485-1.604.324-.482.8-.864 1.43-1.145.629-.281 1.377-.421 2.244-.421 1.283 0 2.294.317 3.033.952.74.636 1.164 1.479 1.274 2.53h-2.895a1.248 1.248 0 00-.468-.844c-.262-.207-.608-.311-1.035-.311-.367 0-.648.07-.843.21a.673.673 0 00-.293.578c0 .293.155.513.467.66.312.146.797.293 1.457.44a15.71 15.71 0 011.85.577c.477.189.896.494 1.256.916.36.421.547.986.559 1.695 0 .598-.168 1.133-.504 1.603s-.819.84-1.448 1.109-1.359.403-2.19.403zm11.708-10.482c1.173 0 2.114.388 2.822 1.164s1.063 1.842 1.063 3.198v5.974h-3.115v-5.553c0-.684-.177-1.216-.531-1.594-.355-.379-.831-.568-1.43-.568-.598 0-1.075.189-1.43.568s-.53.91-.53 1.594v5.553h-3.134V44h3.133v4.71a3.361 3.361 0 011.301-1.082c.55-.268 1.167-.403 1.851-.403zm10.077 10.482c-1.002 0-1.903-.214-2.703-.641s-1.429-1.039-1.887-1.833c-.458-.794-.687-1.722-.687-2.785 0-1.05.232-1.976.696-2.776.464-.8 1.1-1.414 1.906-1.842s1.71-.641 2.712-.641 1.906.213 2.712.64a4.725 4.725 0 011.906 1.843c.464.8.696 1.725.696 2.776s-.235 1.976-.705 2.776c-.47.8-1.112 1.414-1.924 1.842s-1.72.641-2.722.641zm0-2.712a2.04 2.04 0 001.53-.66c.422-.44.633-1.069.633-1.887 0-.819-.205-1.448-.614-1.888-.41-.44-.913-.66-1.512-.66-.61 0-1.118.218-1.521.651-.403.434-.605 1.066-.605 1.897 0 .818.199 1.448.596 1.887.397.44.895.66 1.493.66zm12.075-.092v2.658H90.49c-1.136 0-2.022-.278-2.657-.834s-.953-1.463-.953-2.722v-4.068h-1.246v-2.602h1.246v-2.492h3.134v2.492h2.052v2.602h-2.052v4.105c0 .306.073.525.22.66.146.134.39.201.733.201zm4.029.074h4.435v2.584h-7.935v-2.493l4.252-5.149h-4.215v-2.584h7.806v2.492z"/></g></svg>