<svg width="190" height="40" xmlns="http://www.w3.org/2000/svg"><g fill="#FFF"><path d="M38.1 13.173a.79.79 0 00-.754-.552H26.897a.795.795 0 00-.682 1.193L34.9 28.786c.14.242.396.391.675.394h.007a.79.79 0 00.675-.383A19.064 19.064 0 0039 18.968c0-1.97-.304-3.919-.9-5.795z" opacity=".799"/><path d="M17.934 10.599a.792.792 0 00.684.394h17.286a.79.79 0 00.678-.385.78.78 0 00.014-.778A18.914 18.914 0 0024.028.425a.789.789 0 00-.852.373l-5.24 9.013a.786.786 0 00-.002.788z" opacity=".703"/><path d="M29.001 21.701a.79.79 0 00-.684-.394h-.001a.793.793 0 00-.685.395l-8.746 15.083a.794.794 0 00.663 1.19l.178.01c.108.008.218.015.33.015 5.366 0 10.515-2.301 14.127-6.313a.794.794 0 00.095-.93L29 21.702z" opacity=".901"/><path d="M13.786 24.982a.796.796 0 00.002-.793L5.17 9.09a.79.79 0 00-.67-.4c-.288-.035-.54.138-.684.378A19.083 19.083 0 001 19.028c0 1.971.303 3.921.9 5.799a.79.79 0 00.751.552h10.453a.786.786 0 00.682-.397zm8.28 2.419a.792.792 0 00-.684-.394H4.096a.79.79 0 00-.678.385.78.78 0 00-.014.778 18.914 18.914 0 0012.568 9.404.79.79 0 00.852-.373l5.24-9.012a.785.785 0 00.002-.788zM11.063 16.16c.14.245.402.396.684.397h.002a.79.79 0 00.684-.393L21.115 1.21a.79.79 0 00-.66-1.185l-.178-.01a4.616 4.616 0 00-.33-.015C14.653 0 9.554 2.252 5.958 6.179a.79.79 0 00-.102.926l5.208 9.056zM63.175 18c1.017.217 1.833.72 2.45 1.512.617.792.925 1.696.925 2.713 0 1.467-.512 2.63-1.537 3.487-1.026.859-2.455 1.288-4.288 1.288H52.55V9.45h7.9c1.783 0 3.18.408 4.187 1.225 1.009.817 1.513 1.925 1.513 3.325 0 1.033-.27 1.892-.813 2.575-.541.683-1.262 1.158-2.162 1.425zm-6.35-1.45h2.8c.7 0 1.237-.154 1.612-.463.375-.308.563-.762.563-1.362 0-.6-.188-1.058-.563-1.375-.375-.317-.912-.475-1.612-.475h-2.8v3.675zm3.15 7c.717 0 1.27-.163 1.662-.488.392-.325.588-.795.588-1.412 0-.617-.204-1.1-.613-1.45-.408-.35-.97-.525-1.687-.525h-3.1v3.875h3.15zm21.323-3.75c0 .4-.025.817-.075 1.25h-9.675c.066.867.345 1.53.837 1.987.492.459 1.096.688 1.813.688 1.066 0 1.808-.45 2.225-1.35h4.55a6.244 6.244 0 01-1.263 2.475 6.32 6.32 0 01-2.287 1.725c-.917.417-1.942.625-3.075.625-1.367 0-2.584-.292-3.65-.875a6.224 6.224 0 01-2.5-2.5c-.6-1.083-.9-2.35-.9-3.8 0-1.45.295-2.717.887-3.8a6.143 6.143 0 012.488-2.5c1.066-.583 2.291-.875 3.675-.875 1.35 0 2.55.283 3.6.85a6.103 6.103 0 012.462 2.425c.592 1.05.888 2.275.888 3.675zm-4.375-1.125c0-.733-.25-1.317-.75-1.75-.5-.433-1.125-.65-1.875-.65-.717 0-1.321.208-1.813.625-.492.417-.796 1.008-.912 1.775h5.35zm13.522 4.7V27H88.27c-1.55 0-2.758-.38-3.625-1.137-.867-.759-1.3-1.996-1.3-3.713V16.6h-1.7v-3.55h1.7v-3.4h4.275v3.4h2.8v3.55h-2.8v5.6c0 .417.1.717.3.9.2.183.533.275 1 .275h1.525zm9.273 0V27h-2.175c-1.55 0-2.759-.38-3.625-1.137-.867-.759-1.3-1.996-1.3-3.713V16.6h-1.7v-3.55h1.7v-3.4h4.275v3.4h2.8v3.55h-2.8v5.6c0 .417.1.717.3.9.2.183.533.275 1 .275h1.525zm14.647-3.575c0 .4-.025.817-.075 1.25h-9.675c.067.867.346 1.53.838 1.987.491.459 1.096.688 1.812.688 1.067 0 1.809-.45 2.225-1.35h4.55a6.244 6.244 0 01-1.262 2.475 6.32 6.32 0 01-2.288 1.725c-.916.417-1.941.625-3.075.625-1.366 0-2.583-.292-3.65-.875a6.224 6.224 0 01-2.5-2.5c-.6-1.083-.9-2.35-.9-3.8 0-1.45.296-2.717.888-3.8a6.143 6.143 0 012.487-2.5c1.067-.583 2.292-.875 3.675-.875 1.35 0 2.55.283 3.6.85a6.103 6.103 0 012.463 2.425c.591 1.05.887 2.275.887 3.675zm-4.375-1.125c0-.733-.25-1.317-.75-1.75-.5-.433-1.125-.65-1.875-.65-.716 0-1.32.208-1.812.625-.492.417-.796 1.008-.913 1.775h5.35zm10.023-3.3a5.64 5.64 0 011.875-1.813 4.835 4.835 0 012.5-.662v4.525h-1.175c-1.067 0-1.867.23-2.4.688-.534.458-.8 1.262-.8 2.412V27h-4.275V13.05h4.275v2.325zM131.235 27.2c-1.216 0-2.3-.208-3.25-.625-.95-.417-1.7-.988-2.25-1.712a4.504 4.504 0 01-.925-2.438h4.225c.05.483.275.875.675 1.175.4.3.892.45 1.475.45.534 0 .946-.104 1.238-.312.291-.209.437-.48.437-.813 0-.4-.208-.696-.625-.887-.416-.192-1.091-.405-2.025-.638-1-.233-1.833-.48-2.5-.737a4.32 4.32 0 01-1.725-1.225c-.483-.559-.725-1.313-.725-2.263 0-.8.221-1.53.663-2.188.441-.658 1.091-1.179 1.95-1.562.858-.383 1.879-.575 3.062-.575 1.75 0 3.13.433 4.138 1.3s1.587 2.017 1.737 3.45h-3.95c-.066-.483-.279-.867-.637-1.15-.359-.283-.83-.425-1.413-.425-.5 0-.883.096-1.15.288a.918.918 0 00-.4.787c0 .4.213.7.638.9.425.2 1.087.4 1.987.6 1.034.267 1.875.53 2.525.787.65.259 1.221.676 1.713 1.25.491.576.746 1.346.762 2.313a3.67 3.67 0 01-.687 2.188c-.459.641-1.117 1.145-1.975 1.512-.859.367-1.854.55-2.988.55zm15.973-14.3c1.6 0 2.883.53 3.85 1.587.967 1.059 1.45 2.513 1.45 4.363V27h-4.25v-7.575c0-.933-.242-1.658-.725-2.175-.483-.517-1.133-.775-1.95-.775s-1.467.258-1.95.775c-.483.517-.725 1.242-.725 2.175V27h-4.275V8.5h4.275v6.425c.433-.617 1.025-1.108 1.775-1.475s1.592-.55 2.525-.55zm13.747 14.3c-1.366 0-2.595-.292-3.687-.875a6.407 6.407 0 01-2.575-2.5c-.625-1.083-.938-2.35-.938-3.8 0-1.433.317-2.696.95-3.788a6.446 6.446 0 012.6-2.512c1.1-.583 2.334-.875 3.7-.875 1.367 0 2.6.292 3.7.875a6.446 6.446 0 012.6 2.512c.634 1.092.95 2.355.95 3.788 0 1.433-.32 2.696-.962 3.787a6.509 6.509 0 01-2.625 2.513c-1.108.583-2.346.875-3.713.875zm0-3.7c.817 0 1.513-.3 2.088-.9.575-.6.862-1.458.862-2.575 0-1.117-.279-1.975-.837-2.575-.558-.6-1.246-.9-2.063-.9-.833 0-1.525.296-2.075.888-.55.591-.825 1.454-.825 2.587 0 1.117.271 1.975.813 2.575.542.6 1.22.9 2.037.9zm16.473-.125V27h-2.175c-1.55 0-2.758-.38-3.625-1.137-.867-.759-1.3-1.996-1.3-3.713V16.6h-1.7v-3.55h1.7v-3.4h4.275v3.4h2.8v3.55h-2.8v5.6c0 .417.1.717.3.9.2.183.533.275 1 .275h1.525zm5.497.1h6.05V27H178.15v-3.4l5.8-7.025h-5.75V13.05h10.65v3.4z"/></g></svg>